<?xml version="1.0" encoding="utf-8"?>
<!-- Generator: Adobe Illustrator 22.1.0, SVG Export Plug-In . SVG Version: 6.00 Build 0)  -->
<svg id="Layer_1"
     version="1.1"
     xmlns="http://www.w3.org/2000/svg"
     preserveAspectRatio="xMinYMid slice"
     viewBox="0 0 3360 607"
     xml:space="preserve">
    <style>
        .blue { fill: #2CB4AE; }
        .red { fill: #E74062; }
        .yellow { fill: #F7AD38; }
    </style>
    <g class="icon">
        <polygon class="blue"
                 points="387.9,17.7 302.1,17.7 23.1,500.1 495,500.1 452.1,426.2 151.9,426.2 " />
        <polygon class="red"
                 points="623.4,574.7 666.3,500.4 387.9,17.7 152,426.4 237.5,426.2 387.5,166.2 " />
        <polygon class="yellow"
                 points="23.1,500.1 66.1,574.5 623.4,574.7 387.5,166.1 344.9,240.2 495,500.2 " />
    </g>
    <g class="text">
        <path class="s"
              d="M1112.3,207.1c-3.1-3.5-7.7-7.1-13.7-11.1c-6-3.9-13-7.6-21-11.1c-8-3.4-16.8-6.3-26.4-8.5
            c-9.6-2.2-19.4-3.3-29.5-3.3c-22.3,0-38.7,4.1-49.3,12.3c-10.5,8.2-15.8,19.5-15.8,33.9c0,8.2,1.6,14.8,5,20
            c3.3,5.2,8.4,9.7,15.3,13.7c6.9,3.9,15.6,7.4,25.9,10.4c10.4,3,22.5,6.2,36.3,9.7c17,4.1,32.3,8.6,46,13.7
            c13.7,5,25.2,11.2,34.7,18.4c9.4,7.2,16.7,16.1,21.9,26.6c5.2,10.5,7.8,23.3,7.8,38.4c0,17-3.2,31.6-9.7,43.8
            c-6.4,12.3-15.2,22.2-26.4,29.9c-11.2,7.7-24.1,13.4-38.9,17c-14.8,3.6-30.6,5.4-47.6,5.4c-25.5,0-50-3.8-73.8-11.5
            c-23.7-7.7-45.2-18.9-64.3-33.7l24-45.3c4.1,4.1,10,8.6,17.7,13.7c7.7,5,16.7,9.7,26.9,13.9c10.2,4.2,21.3,7.9,33.2,10.8
            c11.9,3,24.3,4.5,37.2,4.5c20.7,0,36.8-3.6,48.1-10.8c11.3-7.2,17-17.9,17-32.1c0-8.5-2.1-15.6-6.4-21.2
            c-4.2-5.7-10.3-10.6-18.2-14.8c-7.9-4.2-17.4-8.1-28.8-11.5c-11.3-3.5-24.2-7.1-38.7-10.8c-16.7-4.4-31.2-9-43.6-13.9
            c-12.4-4.9-22.7-10.8-30.9-17.7c-8.2-6.9-14.4-15-18.6-24.3c-4.2-9.3-6.4-20.5-6.4-33.7c0-16.3,3.1-30.9,9.4-43.6
            c6.3-12.7,14.8-23.4,25.7-32.1c10.8-8.6,23.6-15.2,38.4-19.6c14.8-4.4,30.8-6.6,48.1-6.6c22.6,0,43.5,3.6,62.7,10.8
            c19.2,7.2,36,16.2,50.4,26.9L1112.3,207.1z" />
        <path class="e"
              d="M1479.1,416.4v46.7h-229.6V128.4h225.3V175h-172.5v95.2h149.4v43.8h-149.4v102.3H1479.1z" />
        <path class="n"
              d="M1633.7,227.4v235.7h-52.8V128.4h41.5l191.4,241.3V128.8h53.3v334.2h-43.8L1633.7,227.4z" />
        <path class="s"
              d="M2187.6,207.1c-3.1-3.5-7.7-7.1-13.7-11.1c-6-3.9-13-7.6-21-11.1c-8-3.4-16.8-6.3-26.4-8.5
                    c-9.6-2.2-19.4-3.3-29.5-3.3c-22.3,0-38.7,4.1-49.3,12.3c-10.5,8.2-15.8,19.5-15.8,33.9c0,8.2,1.7,14.8,5,20
                    c3.3,5.2,8.4,9.7,15.3,13.7c6.9,3.9,15.6,7.4,25.9,10.4c10.4,3,22.5,6.2,36.3,9.7c17,4.1,32.3,8.6,46,13.7
                    c13.7,5,25.2,11.2,34.7,18.4c9.4,7.2,16.7,16.1,21.9,26.6c5.2,10.5,7.8,23.3,7.8,38.4c0,17-3.2,31.6-9.7,43.8
                    c-6.4,12.3-15.2,22.2-26.4,29.9c-11.2,7.7-24.1,13.4-38.9,17c-14.8,3.6-30.6,5.4-47.6,5.4c-25.5,0-50-3.8-73.8-11.5
                    c-23.7-7.7-45.2-18.9-64.3-33.7l24-45.3c4.1,4.1,10,8.6,17.7,13.7c7.7,5,16.7,9.7,26.9,13.9c10.2,4.2,21.3,7.9,33.2,10.8
                    c11.9,3,24.4,4.5,37.2,4.5c20.7,0,36.8-3.6,48.1-10.8c11.3-7.2,17-17.9,17-32.1c0-8.5-2.1-15.6-6.4-21.2
                    c-4.2-5.7-10.3-10.6-18.1-14.8c-7.9-4.2-17.4-8.1-28.8-11.5c-11.3-3.5-24.2-7.1-38.7-10.8c-16.7-4.4-31.2-9-43.6-13.9
                    c-12.4-4.9-22.7-10.8-30.9-17.7c-8.2-6.9-14.4-15-18.6-24.3c-4.2-9.3-6.4-20.5-6.4-33.7c0-16.3,3.1-30.9,9.4-43.6
                    c6.3-12.7,14.9-23.4,25.7-32.1c10.8-8.6,23.6-15.2,38.4-19.6c14.8-4.4,30.8-6.6,48.1-6.6c22.6,0,43.5,3.6,62.7,10.8
                    c19.2,7.2,36,16.2,50.4,26.9L2187.6,207.1z" />
        <path class="e"
              d="M2554.3,416.4v46.7h-229.6V128.4h225.3V175h-172.5v95.2H2527v43.8h-149.4v102.3H2554.3z" />
        <path class="o"
              d="M2788.1,465.4c-23.9,0-45.7-4.8-65.3-14.4c-19.6-9.6-36.5-22.3-50.7-38.2c-14.1-15.9-25.1-34-32.8-54.4
                    c-7.7-20.4-11.5-41.3-11.5-62.7c0-22.3,4.1-43.7,12.3-64.1c8.2-20.4,19.4-38.5,33.7-54.2c14.3-15.7,31.3-28.2,50.9-37.5
                    c19.6-9.3,41.1-13.9,64.3-13.9c23.9,0,45.6,5,65.3,14.9c19.6,9.9,36.5,22.9,50.4,38.9c14,16,24.8,34.2,32.5,54.4
                    c7.7,20.3,11.5,40.9,11.5,62c0,22.3-4,43.7-12,64.1c-8,20.4-19.3,38.4-33.7,54c-14.5,15.6-31.5,28-51.1,37.2
                    C2832.4,460.8,2811.1,465.4,2788.1,465.4z M2681.6,295.7c0,15.7,2.5,31,7.5,45.7c5,14.8,12.2,27.8,21.4,39.1
                    c9.3,11.3,20.5,20.4,33.7,27.1c13.2,6.8,28,10.1,44.3,10.1c17,0,32-3.5,45-10.6c13-7.1,24.1-16.4,33.2-28
                    c9.1-11.6,16-24.7,20.7-39.1c4.7-14.5,7.1-29.2,7.1-44.3c0-16-2.5-31.3-7.5-46c-5-14.6-12.2-27.5-21.4-38.7
                    c-9.3-11.2-20.4-20.1-33.5-26.9c-13-6.8-27.6-10.1-43.6-10.1c-17,0-32.1,3.5-45.2,10.6c-13.2,7.1-24.4,16.3-33.5,27.6
                    c-9.1,11.3-16.1,24.3-21,38.9C2684,265.8,2681.6,280.6,2681.6,295.7z" />
        <path class="n"
              d="M3103.5,227.4v235.7h-52.8V128.4h41.5l191.4,241.3V128.8h53.3v334.2H3293L3103.5,227.4z" />
    </g>
</svg>
